<svg width="26" height="25" viewBox="0 0 26 25" fill="none" xmlns="http://www.w3.org/2000/svg">
<path d="M11.4559 2.67859C11.0657 2.67859 10.7304 2.9449 10.6567 3.31335L10.4137 4.4818C10.2645 5.19919 9.72874 5.77864 9.07483 6.15266C8.41367 6.53082 7.62547 6.68294 6.89803 6.44227L5.70554 6.04773C5.33582 5.93397 4.9317 6.089 4.74069 6.41394L3.11569 9.09949L3.10414 9.11914C2.91817 9.43552 2.98637 9.83372 3.26804 10.076L4.13269 10.8035C4.73217 11.3079 4.94382 12.0689 4.94382 12.8348C4.94382 13.6008 4.73217 14.3618 4.13269 14.8662L3.26804 15.5936C2.98637 15.836 2.91817 16.2342 3.10414 16.5505L3.11569 16.5702L4.74069 19.2557C4.9317 19.5807 5.33582 19.7357 5.70554 19.6219L6.89803 19.2274C7.62547 18.9867 8.41367 19.1389 9.07483 19.517C9.72874 19.891 10.2645 20.4705 10.4137 21.1879L10.6567 22.3563C10.7304 22.7248 11.0657 22.9911 11.4559 22.9911H14.6817C15.0719 22.9911 15.4072 22.7248 15.4809 22.3563L15.724 21.1879C15.8732 20.4705 16.4089 19.891 17.0628 19.517C17.724 19.1389 18.5122 18.9867 19.2396 19.2274L20.4321 19.6219C20.8018 19.7357 21.2059 19.5807 21.3969 19.2557L23.0219 16.5702L23.0335 16.5505C23.2195 16.2342 23.1513 15.836 22.8696 15.5936L22.0049 14.8662C21.4055 14.3618 21.1938 13.6008 21.1938 12.8348C21.1938 12.0689 21.4055 11.3079 22.0049 10.8035L22.8696 10.076C23.1513 9.83372 23.2195 9.43552 23.0335 9.11914L23.0219 9.09949L21.3969 6.41394C21.2059 6.089 20.8018 5.93397 20.4321 6.04773L19.2396 6.44227C18.5122 6.68294 17.724 6.53082 17.0628 6.15266C16.4089 5.77864 15.8732 5.19919 15.724 4.4818L15.4809 3.31335C15.4072 2.9449 15.0719 2.67859 14.6817 2.67859H11.4559ZM11.9213 5.15205C12.0274 4.62322 12.5087 4.24109 13.0688 4.24109C13.6289 4.24109 14.1103 4.62322 14.2163 5.15205L14.4399 6.26746L14.4422 6.27803C14.5037 6.55877 14.7154 6.78708 14.9985 6.87781C15.9221 7.15552 16.76 7.62549 17.4614 8.245C17.6791 8.43934 17.9921 8.50621 18.2739 8.41589L19.426 8.03294C19.9518 7.85818 20.5328 8.06492 20.8135 8.52672C21.0938 8.98765 20.9971 9.57466 20.5824 9.92976L19.6704 10.7108C19.4388 10.8889 19.3382 11.1816 19.4136 11.4573L19.4165 11.4677C19.5212 11.9132 19.5688 12.3679 19.5688 12.8348C19.5688 13.3018 19.5212 13.7565 19.4165 14.202L19.4114 14.2254C19.3519 14.497 19.4512 14.7782 19.6704 14.9589L20.5824 15.7399C20.9971 16.095 21.0938 16.682 20.8135 17.143C20.5328 17.6048 19.9518 17.8115 19.426 17.6367L18.2739 17.2538C17.9921 17.1635 17.6791 17.2303 17.4614 17.4247C16.76 18.0442 15.9221 18.5142 14.9985 18.7919C14.7154 18.8826 14.5037 19.1109 14.4422 19.3916L14.4399 19.4022L14.2163 20.5176C14.1103 21.0465 13.6289 21.4286 13.0688 21.4286C12.5087 21.4286 12.0274 21.0465 11.9213 20.5176L11.6977 19.4022L11.6954 19.3916C11.6339 19.1109 11.4222 18.8826 11.1391 18.7919C10.2155 18.5142 9.37766 18.0442 8.67624 17.4247C8.45857 17.2303 8.14553 17.1635 7.86374 17.2538L6.7116 17.6367C6.18582 17.8115 5.60486 17.6048 5.32409 17.143C5.04385 16.682 5.14054 16.095 5.5552 15.7399L6.46726 14.9589C6.69882 14.7807 6.79946 14.4881 6.72399 14.2124L6.72116 14.202C6.61643 13.7565 6.56882 13.3018 6.56882 12.8348C6.56882 12.3679 6.61643 11.9132 6.72116 11.4677L6.72399 11.4573C6.79946 11.1816 6.69882 10.8889 6.46726 10.7108L5.5552 9.92976C5.14054 9.57466 5.04385 8.98765 5.32409 8.52672C5.60486 8.06492 6.18582 7.85818 6.7116 8.03294L7.86374 8.41589C8.14553 8.50621 8.45857 8.43934 8.67624 8.245C9.37766 7.62549 10.2155 7.15552 11.1391 6.87781C11.4222 6.78708 11.6339 6.55877 11.6954 6.27803L11.6977 6.26746L11.9213 5.15205ZM13.0688 8.92859C10.8344 8.92859 9.00632 10.6864 9.00632 12.8348C9.00632 14.9833 10.8344 16.7411 13.0688 16.7411C15.3032 16.7411 17.1313 14.9833 17.1313 12.8348C17.1313 10.6864 15.3032 8.92859 13.0688 8.92859ZM13.0688 10.4911C14.424 10.4911 15.5063 11.5317 15.5063 12.8348C15.5063 14.1379 14.424 15.1786 13.0688 15.1786C11.7136 15.1786 10.6313 14.1379 10.6313 12.8348C10.6313 11.5317 11.7136 10.4911 13.0688 10.4911Z" fill="#FEF8F3"/>
</svg>
