<svg width="26" height="26" viewBox="0 0 26 26" fill="none" xmlns="http://www.w3.org/2000/svg">
<path d="M23.2593 4.7125L21.8077 4.10583V13.8883L24.4402 7.54C24.8843 6.435 24.3752 5.1675 23.2593 4.7125ZM2.13435 8.72083L7.50768 21.6667C7.6659 22.0605 7.9358 22.3996 8.28417 22.6421C8.63254 22.8846 9.0442 23.02 9.46851 23.0317C9.75018 23.0317 10.0427 22.9775 10.3243 22.8583L18.3085 19.5542C19.121 19.2183 19.6193 18.4167 19.641 17.615C19.6518 17.3333 19.5977 17.0192 19.5002 16.7375L14.0835 3.79167C13.9304 3.39519 13.6615 3.05398 13.3117 2.81246C12.962 2.57094 12.5477 2.44028 12.1227 2.4375C11.841 2.4375 11.5593 2.5025 11.2885 2.6L3.31518 5.90417C2.78517 6.12121 2.36305 6.53984 2.14162 7.06803C1.92019 7.59622 1.91757 8.19072 2.13435 8.72083ZM19.6302 4.60417C19.6302 4.02953 19.4019 3.47843 18.9956 3.0721C18.5892 2.66577 18.0381 2.4375 17.4635 2.4375H15.8927L19.6302 11.4725" fill="white"/>
</svg>
