<svg width="17" height="24" viewBox="0 0 17 24" fill="none" xmlns="http://www.w3.org/2000/svg">
<path d="M7 8.018C6.9953 8.21378 6.91421 8.39995 6.77407 8.53673C6.63392 8.67351 6.44583 8.75006 6.25 8.75C5.5 8.75 5.5 7.999 5.5 7.999V7.99C5.50053 7.94523 5.5032 7.90051 5.508 7.856C5.55224 7.46971 5.69706 7.10179 5.928 6.789C6.382 6.176 7.198 5.727 8.513 5.75C9.463 5.767 10.306 6.165 10.834 6.82C11.371 7.487 11.552 8.39 11.196 9.279C10.834 10.184 10.015 10.544 9.544 10.75L9.494 10.773C9.214 10.896 9.081 10.96 9.001 11.024L9 11.025V11.749C9.00013 11.9479 8.92124 12.1387 8.78068 12.2795C8.64013 12.4202 8.44941 12.4994 8.2505 12.4995C8.05159 12.4996 7.86077 12.4207 7.72002 12.2802C7.57928 12.1396 7.50013 11.9489 7.5 11.75V11C7.5 10.477 7.752 10.103 8.063 9.853C8.313 9.653 8.628 9.515 8.849 9.417L8.887 9.4C9.429 9.161 9.687 9.013 9.804 8.721C9.87268 8.56401 9.89616 8.39095 9.87178 8.22134C9.84739 8.05172 9.77612 7.89229 9.666 7.761C9.444 7.486 9.037 7.259 8.487 7.25C7.552 7.234 7.242 7.535 7.134 7.682C7.06248 7.77908 7.01641 7.89254 7 8.012V8.018ZM8.25 15.5C8.51522 15.5 8.76957 15.3946 8.95711 15.2071C9.14464 15.0196 9.25 14.7652 9.25 14.5C9.25 14.2348 9.14464 13.9804 8.95711 13.7929C8.76957 13.6054 8.51522 13.5 8.25 13.5C7.98478 13.5 7.73043 13.6054 7.54289 13.7929C7.35536 13.9804 7.25 14.2348 7.25 14.5C7.25 14.7652 7.35536 15.0196 7.54289 15.2071C7.73043 15.3946 7.98478 15.5 8.25 15.5ZM0 4.5C0 3.83696 0.263392 3.20107 0.732233 2.73223C1.20107 2.26339 1.83696 2 2.5 2H14C14.3283 2 14.6534 2.06466 14.9567 2.1903C15.26 2.31594 15.5356 2.50009 15.7678 2.73223C15.9999 2.96438 16.1841 3.23998 16.3097 3.54329C16.4353 3.84661 16.5 4.1717 16.5 4.5V18.75C16.5 18.9489 16.421 19.1397 16.2803 19.2803C16.1397 19.421 15.9489 19.5 15.75 19.5H1.5C1.5 19.7652 1.60536 20.0196 1.79289 20.2071C1.98043 20.3946 2.23478 20.5 2.5 20.5H15.75C15.9489 20.5 16.1397 20.579 16.2803 20.7197C16.421 20.8603 16.5 21.0511 16.5 21.25C16.5 21.4489 16.421 21.6397 16.2803 21.7803C16.1397 21.921 15.9489 22 15.75 22H2.5C1.83696 22 1.20107 21.7366 0.732233 21.2678C0.263392 20.7989 0 20.163 0 19.5V4.5ZM1.5 4.5V18H15V4.5C15 4.23478 14.8946 3.98043 14.7071 3.79289C14.5196 3.60536 14.2652 3.5 14 3.5H2.5C2.23478 3.5 1.98043 3.60536 1.79289 3.79289C1.60536 3.98043 1.5 4.23478 1.5 4.5Z" fill="#4A4A4A"/>
</svg>
