<svg width="19" height="16" viewBox="0 0 19 16" fill="none" xmlns="http://www.w3.org/2000/svg">
<path d="M12.2043 9.75071L10.7713 11.1837C10.5743 11.3807 10.2572 11.3807 10.0602 11.1837L8.98816 10.1117L12.2043 9.75071ZM12.2043 9.75071L5.767 3.31337L4.33398 4.74639L4.33361 4.74676C4.2869 4.79336 4.24985 4.84873 4.22457 4.90968C4.19929 4.97063 4.18627 5.03596 4.18627 5.10195C4.18627 5.16793 4.19929 5.23327 4.22457 5.29422C4.24985 5.35517 4.2869 5.41053 4.33361 5.45714L4.33398 5.45751L5.40638 6.52991C5.99849 7.12202 5.99849 8.08979 5.40638 8.6819C4.94544 9.14284 4.34294 9.56701 3.76762 9.97205C3.54243 10.1306 3.32141 10.2862 3.11467 10.4399L3.11448 10.4401C2.7624 10.7016 2.43414 10.9561 2.14871 11.2415L1.79102 10.8838L2.14871 11.2415C1.49938 11.8908 0.949537 12.6415 0.680226 13.3181C0.406831 14.005 0.469441 14.4647 0.760875 14.7532L0.764488 14.7568L0.76447 14.7568C1.05311 15.0484 1.51297 15.1109 2.20027 14.8385C2.87698 14.5703 3.62751 14.0228 4.27695 13.3784C4.56162 13.0936 4.81519 12.7666 5.08726 12.4039C5.22471 12.2157 5.36385 12.0164 5.50574 11.8131C5.92081 11.2185 6.35933 10.5903 6.84737 10.1099C6.98757 9.96986 7.15391 9.85873 7.33695 9.78281C7.52078 9.70655 7.71784 9.6673 7.91686 9.6673C8.11588 9.6673 8.31294 9.70655 8.49677 9.78281C8.68044 9.85899 8.84729 9.97063 8.9878 10.1113L12.2043 9.75071ZM13.638 8.31702L7.20068 1.87968L8.36054 0.719823L8.37066 0.709708L8.38018 0.699038C8.40738 0.668582 8.4992 0.602194 8.70987 0.554853C8.91052 0.509764 9.17163 0.493137 9.47008 0.516181C10.0697 0.562481 10.7458 0.762765 11.2762 1.10869C11.7592 1.4281 12.0724 1.68961 12.3967 1.96045C12.464 2.01667 12.5319 2.07329 12.6018 2.13091C13.015 2.47157 13.4707 2.81956 14.2528 3.25292L14.2528 3.25294L14.2568 3.25511C15.1874 3.75983 16.2308 4.28492 17.6463 4.30873L13.638 8.31702ZM3.97629 4.3887C3.8825 4.48229 3.80809 4.59347 3.75732 4.71586C3.70655 4.83825 3.68042 4.96945 3.68042 5.10195C3.68042 5.23445 3.70655 5.36565 3.75732 5.48804C3.80809 5.61043 3.8825 5.7216 3.97629 5.8152V4.3887Z" fill="#4A4A4A" stroke="#4A4A4A"/>
</svg>
