<svg width="20" height="20" viewBox="0 0 20 20" fill="none" xmlns="http://www.w3.org/2000/svg">
<path d="M19 13V10C19 8.8181 18.7672 7.64778 18.3149 6.55585C17.8626 5.46392 17.1997 4.47177 16.364 3.63604C15.5282 2.80031 14.5361 2.13738 13.4442 1.68508C12.3522 1.23279 11.1819 1 10 1C8.8181 1 7.64778 1.23279 6.55585 1.68508C5.46392 2.13738 4.47177 2.80031 3.63604 3.63604C2.80031 4.47177 2.13738 5.46392 1.68508 6.55585C1.23279 7.64778 1 8.8181 1 10V13" stroke="#4A4A4A" stroke-width="2" stroke-linecap="round"/>
<path d="M0.5 14.5H1H1.5V16.5H0.5V14.5ZM3.5 13.5H2.5V13V12.5H3.5V13.5ZM4.5 13.5V12.5858C4.70895 12.6597 4.90096 12.7796 5.06066 12.9393C5.22036 13.099 5.34033 13.291 5.41421 13.5H4.5ZM4.5 14.5H5.5V16.5H4.5V14.5ZM4.41421 17.5H5.4495C5.35218 17.9767 5.11696 18.4186 4.76777 18.7678C4.41858 19.117 3.97672 19.3522 3.5 19.4495V18.4142C3.70895 18.3403 3.90096 18.2204 4.06066 18.0607C4.22036 17.901 4.34033 17.709 4.41421 17.5ZM2.5 18.4142V19.4495C2.02328 19.3522 1.58142 19.117 1.23223 18.7678C0.883042 18.4186 0.647818 17.9767 0.5505 17.5H1.58579C1.65967 17.709 1.77964 17.901 1.93934 18.0607C2.09904 18.2204 2.29105 18.3403 2.5 18.4142ZM19 14.5H19.5V16.5H18.5V14.5H19ZM18.4142 17.5H19.4495C19.3522 17.9767 19.117 18.4186 18.7678 18.7678C18.4186 19.117 17.9767 19.3522 17.5 19.4495V18.4142C17.709 18.3403 17.901 18.2204 18.0607 18.0607C18.2204 17.901 18.3403 17.709 18.4142 17.5ZM16.5 18.4142V19.4495C16.0233 19.3522 15.5814 19.117 15.2322 18.7678C14.883 18.4186 14.6478 17.9767 14.5505 17.5H15.5858C15.6597 17.709 15.7796 17.901 15.9393 18.0607C16.099 18.2204 16.291 18.3403 16.5 18.4142ZM15.5 16.5H14.5V14.5H15.5V16.5ZM14.5858 13.5C14.6597 13.291 14.7796 13.099 14.9393 12.9393C15.099 12.7796 15.291 12.6597 15.5 12.5858V13.5H14.5858ZM17.5 13.5H16.5V12.5H17.5V13V13.5Z" fill="black" stroke="#4A4A4A"/>
</svg>
