<svg width="28" height="17" viewBox="0 0 28 17" fill="none" xmlns="http://www.w3.org/2000/svg">
<path fill-rule="evenodd" clip-rule="evenodd" d="M5.0225 8.26529L8.47 11.7068C8.59895 11.8267 8.70238 11.9714 8.77412 12.1321C8.84585 12.2928 8.88443 12.4663 8.88754 12.6422C8.89064 12.8181 8.85823 12.9929 8.79221 13.156C8.7262 13.3192 8.62795 13.4674 8.50332 13.5918C8.37868 13.7162 8.23023 13.8143 8.0668 13.8802C7.90337 13.9461 7.72832 13.9784 7.55209 13.9753C7.37586 13.9722 7.20206 13.9337 7.04106 13.8621C6.88006 13.7905 6.73516 13.6873 6.615 13.5585L0.9275 7.88096L0 6.95508L0.9275 6.02921L6.615 0.351645C6.86381 0.12021 7.19289 -0.00578477 7.53291 0.000204125C7.87294 0.00619302 8.19737 0.143698 8.43784 0.383751C8.67831 0.623803 8.81606 0.94766 8.82206 1.28709C8.82806 1.62653 8.70184 1.95503 8.47 2.2034L5.0225 5.64488H22.3125C23.8209 5.64488 25.2676 6.24305 26.3342 7.3078C27.4008 8.37255 28 9.81666 28 11.3224C28 12.8282 27.4008 14.2723 26.3342 15.3371C25.2676 16.4018 23.8209 17 22.3125 17H18.8125C18.4644 17 18.1306 16.862 17.8844 16.6162C17.6383 16.3705 17.5 16.0373 17.5 15.6898C17.5 15.3423 17.6383 15.0091 17.8844 14.7633C18.1306 14.5176 18.4644 14.3796 18.8125 14.3796H22.3125C23.1247 14.3796 23.9037 14.0575 24.478 13.4842C25.0523 12.9108 25.375 12.1332 25.375 11.3224C25.375 10.5116 25.0523 9.73404 24.478 9.16071C23.9037 8.58738 23.1247 8.26529 22.3125 8.26529H5.0225Z" fill="white"/>
</svg>
