<svg width="16" height="24" viewBox="0 0 16 24" fill="none" xmlns="http://www.w3.org/2000/svg">
<path d="M15.5 17.7071V18H0.5V17.7071L2.35355 15.8536L2.5 15.7071V15.5V10.5C2.5 7.5953 4.03148 5.28086 6.61566 4.66644L7 4.57506V4.18V3.5C7 2.94614 7.44614 2.5 8 2.5C8.55386 2.5 9 2.94614 9 3.5V4.18V4.57538L9.38472 4.66653C11.9774 5.28083 13.5 7.60389 13.5 10.5V15.5V15.7071L13.6464 15.8536L15.5 17.7071ZM12 17H12.5V16.5V10.5C12.5 9.1619 12.0927 7.91673 11.3156 6.99727C10.5318 6.06974 9.39204 5.5 8 5.5C6.60796 5.5 5.4682 6.06974 4.68436 6.99727C3.90733 7.91673 3.5 9.1619 3.5 10.5V16.5V17H4H12ZM9.41352 20C9.20605 20.5806 8.64884 21 8 21C7.35116 21 6.79395 20.5806 6.58648 20H9.41352Z" fill="#4A4A4A" stroke="#4A4A4A"/>
</svg>
